Coordinates
version=1
nRows=7
nColumns=32
inDegrees=yes

Units are S.I. units (second, meters, Newtons, ...)
If the header above contains a line with 'inDegrees', this indicates whether rotational values are in degrees (yes) or radians (no).

endheader
time	pelvis_tilt	pelvis_list	pelvis_rotation	pelvis_tx	pelvis_ty	pelvis_tz	hip_flexion_r	hip_adduction_r	hip_rotation_r	knee_angle_r	knee_adduction_r	med_cond_adduction_r	lat_cond_adduction_r	patella_r_constrained_knee_angle	ankle_angle_r	subtalar_angle_r	mtp_angle_r	hip_flexion_l	hip_adduction_l	hip_rotation_l	knee_angle_l	knee_adduction_l	med_cond_adduction_l	lat_cond_adduction_l	patella_l_constrained_knee_angle	ankle_angle_l	subtalar_angle_l	mtp_angle_l	lumbar_extension	lumbar_bending	lumbar_rotation
      0.00000000	     10.08851543	    -18.09738508	     89.07748856	      0.45571960	      1.12293413	      0.02499384	     28.06752726	     14.05678172	     39.89134570	     -3.52409995	     -0.00000000	      0.00000000	     -0.00000000	     -0.06150715	    -13.57172294	    -19.91100111	     -0.00000000	    -13.92066438	     -9.68942155	      5.35079708	    -13.18158557	     -0.00000000	     -0.00000000	      0.00000000	     -0.23006207	    -34.41417587	      1.15045744	      0.00000000	      0.00000000	      0.00000000	     -0.00000000
      0.00416667	      9.53076625	    -17.82417132	     88.78365894	      0.45622820	      1.12202896	      0.01091483	     27.83585756	     13.56060210	     39.90105752	     -3.06096836	      0.00000000	      0.00000000	     -0.00000000	     -0.05342398	    -12.80295677	    -19.91253794	     -0.00000000	    -14.66341709	     -8.99601582	      6.05661118	    -13.60255316	      0.00000000	      0.00000000	     -0.00000000	     -0.23740934	    -34.50612845	      0.97691948	      0.00000000	      0.00000000	      0.00000000	     -0.00000000
      0.00833333	      9.01122477	    -17.53939598	     88.47436517	      0.45667307	      1.12111779	     -0.00325002	     27.55361384	     13.10715162	     39.90896124	     -2.61095946	     -0.00000000	      0.00000000	     -0.00000000	     -0.04556984	    -12.18216393	    -19.91340252	      0.00000000	    -15.41014743	     -8.31329206	      6.74440150	    -14.02948836	     -0.00000000	     -0.00000000	      0.00000000	     -0.24486076	    -34.61029755	      0.60024086	      0.00000000	      0.00000000	      0.00000000	     -0.00000000
      0.01250000	      8.51760583	    -17.19922892	     88.22256221	      0.45705487	      1.12023984	     -0.01759435	     27.17466616	     12.65877451	     39.91456344	     -2.16438389	      0.00000000	      0.00000000	     -0.00000000	     -0.03777563	    -11.71357141	    -19.91397736	     -0.00000000	    -16.18316882	     -7.66595332	      7.44647652	    -14.49098464	      0.00000000	     -0.00000000	      0.00000000	     -0.25291539	    -34.77672100	      0.21109083	     -0.00000000	      0.00000000	      0.00000000	     -0.00000000
      0.01666667	      8.12301602	    -16.76002480	     87.94981404	      0.45745745	      1.11939594	     -0.03200998	     26.66372808	     12.32628741	     39.91980262	     -1.76604948	     -0.00000000	      0.00000000	     -0.00000000	     -0.03082338	    -11.36680019	    -19.91418146	     -0.00000000	    -17.03021447	     -7.10830401	      7.93303404	    -15.01249083	     -0.00000000	      0.00000000	     -0.00000000	     -0.26201739	    -34.94953832	     -0.03565614	     -0.00000000	      0.00000000	      0.00000000	     -0.00000000
      0.02083333	      7.85445513	    -16.13863995	     87.65393613	      0.45790842	      1.11870593	     -0.04660899	     25.92220359	     12.13564500	     39.92408063	     -1.41680212	     -0.00000000	      0.00000000	     -0.00000000	     -0.02472786	    -11.17486864	    -19.91425374	      0.00000000	    -18.02326323	     -6.68608778	      8.06547474	    -15.65957030	     -0.00000000	     -0.00000000	      0.00000000	     -0.27331106	    -34.96222464	      0.07699529	      0.00000000	      0.00000000	      0.00000000	     -0.00000000
      0.02500000	      7.60753069	    -15.43261457	     87.38548877	      0.45830432	      1.11805101	     -0.06138402	     25.03747655	     11.95623608	     39.92762158	     -1.05893740	     -0.00000000	     -0.00000000	      0.00000000	     -0.01848194	    -11.00696449	    -19.91411235	     -0.00000000	    -19.09219733	     -6.28413323	      8.18451638	    -16.31205176	      0.00000000	     -0.00000000	      0.00000000	     -0.28469901	    -35.00056450	      0.16763839	     -0.00000000	      0.00000000	      0.00000000	     -0.00000000
